<?xml version="1.0" encoding="iso-8859-1"?>
<!DOCTYPE svg PUBLIC "-//W3C//DTD SVG 1.1//EN" "http://www.w3.org/Graphics/SVG/1.1/DTD/svg11.dtd">
<svg version="1.1" id="Capa_1" xmlns="http://www.w3.org/2000/svg" xmlns:xlink="http://www.w3.org/1999/xlink" x="0px" y="0px"
	 width="152.275px" height="152.275px" viewBox="0 0 152.275 152.275" style="enable-background:new 0 0 152.275 152.275;"
	 xml:space="preserve">
<g>
	<path d="M58.686,45.713h-2.898V27.491h2.898V45.713z M61.385,73.604c0,1.286-0.418,2.304-1.256,3.037
		c-0.833,0.736-1.798,1.106-2.9,1.106c-1.094,0-2.089-0.371-2.902-1.106c-0.824-0.738-1.239-1.746-1.239-3.037v-9.806
		c0-1.371,0.411-2.424,1.239-3.151c0.812-0.742,1.808-1.116,2.902-1.116c1.098,0,2.062,0.374,2.9,1.116
		c0.833,0.733,1.256,1.786,1.256,3.151V73.604z M58.483,63.245c0-0.822-0.408-1.239-1.254-1.239c-0.829,0-1.234,0.417-1.234,1.239
		V74.02c0,0.835,0.396,1.256,1.234,1.256c0.841,0,1.254-0.416,1.254-1.256V63.245z M60.129,92.673
		c0.833,0.733,1.256,1.796,1.256,3.175v9.795c0,1.28-0.418,2.309-1.256,3.042c-0.833,0.734-1.798,1.1-2.9,1.1
		c-1.094,0-2.089-0.365-2.902-1.1c-0.824-0.733-1.239-1.762-1.239-3.042v-9.795c0-1.379,0.411-2.446,1.239-3.175
		c0.812-0.732,1.808-1.104,2.902-1.104C58.327,91.569,59.291,91.94,60.129,92.673z M58.483,95.295c0-0.838-0.408-1.254-1.254-1.254
		c-0.829,0-1.234,0.416-1.234,1.254v10.764c0,0.837,0.396,1.247,1.234,1.247c0.841,0,1.254-0.405,1.254-1.247V95.295z M34.698,41.56
		c0,1.283-0.432,2.304-1.26,3.037c-0.829,0.733-1.8,1.111-2.904,1.111c-1.116,0-2.078-0.377-2.914-1.111
		c-0.807-0.733-1.239-1.754-1.239-3.037v-9.794c0-1.384,0.432-2.438,1.239-3.171c0.829-0.734,1.793-1.103,2.914-1.103
		c1.097,0,2.069,0.364,2.904,1.103c0.822,0.733,1.26,1.787,1.26,3.171V41.56z M31.801,31.215c0-0.834-0.42-1.252-1.267-1.252
		c-0.822,0-1.245,0.414-1.245,1.252v10.767c0,0.834,0.416,1.247,1.245,1.247c0.84,0,1.267-0.413,1.267-1.247V31.215z M33.438,76.641
		c-0.829,0.736-1.8,1.106-2.904,1.106c-1.116,0-2.078-0.371-2.914-1.106c-0.807-0.738-1.239-1.746-1.239-3.037v-9.806
		c0-1.371,0.432-2.424,1.239-3.151c0.829-0.742,1.793-1.116,2.914-1.116c1.097,0,2.069,0.374,2.904,1.116
		c0.822,0.733,1.26,1.786,1.26,3.151v9.806C34.698,74.89,34.267,75.908,33.438,76.641z M31.801,63.245
		c0-0.822-0.42-1.239-1.267-1.239c-0.822,0-1.245,0.417-1.245,1.239V74.02c0,0.835,0.416,1.256,1.245,1.256
		c0.84,0,1.267-0.416,1.267-1.256V63.245z M29.095,109.79h2.9V91.569h-2.9V109.79z M83.933,45.708c-1.098,0-2.074-0.377-2.9-1.111
		s-1.251-1.754-1.251-3.037v-9.794c0-1.384,0.414-2.438,1.251-3.171c0.817-0.734,1.789-1.103,2.9-1.103
		c1.101,0,2.062,0.364,2.905,1.103c0.821,0.733,1.259,1.787,1.259,3.171v9.794c0,1.283-0.425,2.304-1.259,3.037
		C86.001,45.33,85.038,45.708,83.933,45.708z M83.933,43.229c0.826,0,1.274-0.413,1.274-1.247V31.215
		c0-0.834-0.43-1.252-1.274-1.252c-0.816,0-1.248,0.414-1.248,1.252v10.767C82.685,42.815,83.096,43.229,83.933,43.229z
		 M110.62,45.708c-1.105,0-2.08-0.377-2.917-1.111c-0.813-0.733-1.242-1.754-1.242-3.037v-9.794c0-1.384,0.429-2.438,1.242-3.171
		c0.837-0.734,1.802-1.103,2.917-1.103c1.094,0,2.069,0.364,2.91,1.103c0.821,0.733,1.261,1.787,1.261,3.171v9.794
		c0,1.283-0.429,2.304-1.261,3.037C112.699,45.33,111.727,45.708,110.62,45.708z M110.63,43.229c0.821,0,1.265-0.413,1.265-1.247
		V31.215c0-0.834-0.433-1.252-1.265-1.252c-0.836,0-1.256,0.414-1.256,1.252v10.767C109.379,42.815,109.79,43.229,110.63,43.229z
		 M18.104,116.159V21.125c0-14.355,1.16-15.521,15.516-15.521h73.935c14.355,0,15.514,1.16,15.514,15.521v37.867
		c1.985,1.368,3.891,2.864,5.604,4.585V21.125C128.672,3.694,124.975,0,107.555,0h-73.94C16.201,0,12.497,3.688,12.497,21.125
		v95.035c0,17.414,3.698,21.122,21.118,21.122h71.287v-5.604H33.615C19.265,131.678,18.104,130.52,18.104,116.159z M129.932,74.345
		c9.219,15.982,3.73,36.5-12.265,45.716c-15.983,9.226-36.498,3.743-45.718-12.258c-9.229-15.973-3.731-36.484,12.253-45.713
		C100.181,52.873,120.688,58.359,129.932,74.345z M125.12,77.125c-7.705-13.344-24.821-17.927-38.162-10.239
		C73.618,74.591,69.03,91.705,76.75,105.04c7.691,13.336,24.808,17.948,38.148,10.239C128.247,107.568,132.813,90.463,125.12,77.125
		z M126.085,118.011l-14.386,8.311l11.079,19.179l14.386-8.317L126.085,118.011z M138.658,139.812l-14.39,8.305
		c2.297,3.983,7.374,5.329,11.347,3.055C139.588,148.871,140.967,143.788,138.658,139.812z"/>
</g>
<g>
</g>
<g>
</g>
<g>
</g>
<g>
</g>
<g>
</g>
<g>
</g>
<g>
</g>
<g>
</g>
<g>
</g>
<g>
</g>
<g>
</g>
<g>
</g>
<g>
</g>
<g>
</g>
<g>
</g>
</svg>
